<?xml version="1.0" encoding="utf-8"?>
<!-- Generator: Adobe Illustrator 16.0.0, SVG Export Plug-In . SVG Version: 6.00 Build 0)  -->
<!DOCTYPE svg PUBLIC "-//W3C//DTD SVG 1.1//EN" "http://www.w3.org/Graphics/SVG/1.1/DTD/svg11.dtd">
<svg version="1.1" id="Layer_1" xmlns="http://www.w3.org/2000/svg" xmlns:xlink="http://www.w3.org/1999/xlink" x="0px" y="0px"
	 width="203.875px" height="70px" viewBox="0 0 203.875 70" enable-background="new 0 0 203.875 70" xml:space="preserve">
<g>
	<g>
		<path fill="#CF9A2C" d="M43.627,58.236c1.921-5.605,0.435-12.379-4.303-19.585l-0.638-0.97l-0.533,1.031
			c-0.062,0.12-6.361,12.026-18.062,12.028l0,0c-3.492,0-7.169-1.057-10.93-3.14l-0.977-0.541l-0.033,1.114
			c-0.254,8.333,2.927,13.418,5.641,16.215c3.342,3.446,7.804,5.343,12.561,5.345h0.001c1.931,0,3.841-0.32,5.68-0.947
			C37.862,66.797,41.978,63.05,43.627,58.236z M31.594,67.501c-1.698,0.58-3.46,0.873-5.24,0.873h-0.001
			c-4.387,0-8.501-1.751-11.585-4.931c-2.409-2.484-5.215-6.919-5.271-14.124c3.621,1.846,7.181,2.78,10.594,2.78l0,0
			c10.451,0,16.82-8.775,18.69-11.774c4.028,6.49,5.259,12.512,3.56,17.472C40.832,62.203,37.015,65.647,31.594,67.501z"/>
		<path fill="#CF9A2C" d="M49.815,33.797c-2.834,0-5.957,0.485-9.284,1.441l-1.115,0.321l0.826,0.815
			c0.069,0.069,6.96,6.979,6.886,15.878c-0.041,5.17-2.403,10.029-7.021,14.443l-0.807,0.77l1.055,0.364
			c2.83,0.977,5.63,1.473,8.32,1.473l0,0c5.286,0,10.093-1.944,13.529-5.477c3.308-3.4,5.059-7.898,4.929-12.665
			C66.843,40.453,60.207,33.797,49.815,33.797z M61.23,62.879c-4.606,4.73-11.868,6.275-19.383,4.006
			c4.369-4.473,6.602-9.39,6.641-14.633c0.059-7.71-4.605-13.829-6.508-16.001c2.802-0.727,5.432-1.093,7.835-1.093
			c9.722,0,15.688,5.995,15.96,16.041C65.894,55.595,64.281,59.743,61.23,62.879z"/>
		<path fill="#CF9A2C" d="M18.428,49.207c5.874,0,11.806-3.396,17.15-9.824l0.763-0.919l-1.178-0.188
			c-0.101-0.016-9.996-1.669-15.057-8.963c-2.822-4.067-3.643-9.146-2.439-15.095l0.219-1.088l-1.069,0.3
			C9.175,15.571,3.841,20.155,1.803,26.338c-1.718,5.21-0.71,10.938,2.696,15.327C8.277,46.528,13.222,49.207,18.428,49.207
			L18.428,49.207z M5.574,40.83c-3.13-4.029-4.057-9.287-2.48-14.065c1.799-5.455,6.41-9.584,13.039-11.711
			c-0.965,5.858-0.003,10.914,2.863,15.042c4.391,6.32,11.909,8.613,14.794,9.287c-4.876,5.545-10.169,8.466-15.361,8.466h-0.001
			C13.652,47.848,9.087,45.357,5.574,40.83z"/>
		<path fill="#CF9A2C" d="M35.319,36.435l1.1,0.373l-0.213-1.143c-0.018-0.095-1.731-9.705,3.41-16.971
			c2.983-4.221,7.696-6.862,14.007-7.853l1.101-0.174l-0.657-0.897c-4.478-6.129-10.475-9.505-16.885-9.505
			c-5.908,0-11.374,2.956-14.619,7.909c-3.375,5.15-4.322,10.635-2.668,15.446C21.822,29.227,27.156,33.657,35.319,36.435z
			 M23.699,8.918c2.992-4.565,8.033-7.292,13.482-7.292c5.655,0,10.988,2.854,15.117,8.065c-6.135,1.181-10.774,3.945-13.799,8.225
			c-4.449,6.3-4.115,13.988-3.791,16.859c-7.157-2.648-11.822-6.642-13.527-11.597C19.665,18.773,20.559,13.71,23.699,8.918z"/>
		<path fill="#CF9A2C" d="M72.738,24.39c-1.563-5.257-5.659-9.385-10.959-11.04c-2.195-0.687-4.371-1.037-6.469-1.037
			c-9.995,0-16.629,7.722-17.749,20.65l-0.103,1.19l1.078-0.521c0.048-0.022,4.959-2.363,10.856-2.363
			c7.96,0,13.759,4.08,17.24,12.134l0.44,1.02l0.707-0.858C72.761,37.531,74.567,30.541,72.738,24.39z M67.416,41.84
			c-4.683-9.828-12.336-11.931-18.022-11.931c-4.585,0-8.53,1.309-10.364,2.035c1.329-11.63,7.221-18.271,16.281-18.271
			c1.958,0,4,0.328,6.062,0.975c4.867,1.52,8.629,5.306,10.062,10.128C73.072,30.284,71.646,36.309,67.416,41.84z"/>
		<path fill="#CF9A2C" d="M35.954,56.874l-9.662-4.121l-9.661,4.121c-0.287,0.122-0.421,0.455-0.298,0.743
			c0.123,0.286,0.455,0.422,0.742,0.299l1.906-0.815v8.222h1.145v-8.71l6.166-2.63l6.513,2.778v8.562h1.144v-8.073l1.562,0.667
			c0.072,0.031,0.146,0.046,0.221,0.046c0.221,0,0.43-0.13,0.521-0.345C36.375,57.329,36.242,56.996,35.954,56.874z"/>
		<path fill="#CF9A2C" d="M21.3,65.322h4.991v-5.894H21.3V65.322z M21.929,59.995h3.691v0.608h-3.691V59.995z"/>
		<path fill="#CF9A2C" d="M26.732,65.322h4.993v-5.894h-4.993V65.322z M27.361,59.995h3.692v0.608h-3.692V59.995z"/>
		<polygon fill="#CF9A2C" points="63.169,22.391 63.169,21.1 56.63,19.382 50.093,21.1 50.093,22.391 56.593,20.688 		"/>
		<polygon fill="#CF9A2C" points="54.664,17.82 51.482,17.743 51.482,20.462 54.664,19.672 		"/>
		<polygon fill="#CF9A2C" points="58.541,19.672 61.684,20.462 61.684,17.82 58.541,17.82 		"/>
		<polygon fill="#CF9A2C" points="55.049,19.575 56.63,19.104 58.212,19.672 58.212,17.82 55.049,17.82 		"/>
		<rect x="53.295" y="14.617" fill="#CF9A2C" width="3.239" height="2.991"/>
		<rect x="56.919" y="14.617" fill="#CF9A2C" width="3.24" height="2.991"/>
		<path fill="#CF9A2C" d="M53.458,27.28c0.212-0.01,1.297,1.017,1.475,1.085c0.18,0.067,0.468-0.059,0.521-0.256
			c0.053-0.198,0.906-0.821,0.906-0.821V21.1l-6.374,1.596l2.61,4.965C52.697,27.36,53.247,27.288,53.458,27.28z"/>
		<path fill="#CF9A2C" d="M56.926,27.288c0,0,0.853,0.623,0.906,0.821c0.052,0.197,0.342,0.323,0.521,0.256
			c0.178-0.068,1.263-1.095,1.475-1.085c0.212,0.008,0.763,0.08,0.863,0.38l2.608-4.965L56.926,21.1V27.288z"/>
		<path fill="#CF9A2C" d="M62.239,28.383c-0.376,0.546-0.505,0.677-0.839,0.511c-0.334-0.168-1.144-1.106-1.534-1.02
			c-0.39,0.087-1.118,0.982-1.325,1.098c-0.207,0.116-0.93-0.115-1.191-0.665c-0.26-0.55-0.982-0.52-1.229-0.231
			c-0.246,0.29-0.738,0.94-1.072,0.911c-0.331-0.027-1.349-1.373-1.977-1.025c-0.626,0.346-0.873,0.911-1.219,0.968
			c-0.347,0.058-0.621-0.268-0.926-0.546c-0.304-0.278-0.709-0.64-1.127-0.278c0,0,0.375,0.015,0.592,0.478s0.882,1.489,1.505,1.114
			c0.622-0.378,1.128-1.289,1.432-1.1c0.304,0.188,1.259,1.187,1.662,1.085c0.405-0.103,1.413-1.361,1.642-1.158
			c0.227,0.202,1.064,1.347,1.527,1.173s1.359-1.317,1.723-1.146c0.36,0.175,1.285,1.424,1.676,1.226
			c0.391-0.197,1.385-1.759,1.611-1.759C63.169,28.018,62.614,27.838,62.239,28.383z"/>
		<path fill="#CF9A2C" d="M59.099,53.89c-1.4,0-2.536,1.136-2.536,2.534c0,1.401,1.136,2.539,2.536,2.539s2.536-1.138,2.536-2.539
			C61.635,55.025,60.5,53.89,59.099,53.89z M59.099,57.583c-0.64,0-1.158-0.518-1.158-1.159c0-0.639,0.519-1.156,1.158-1.156
			c0.639,0,1.158,0.518,1.158,1.156C60.257,57.065,59.738,57.583,59.099,57.583z"/>
		<path fill="#CF9A2C" d="M61.917,55.473l3.32-2.06c0,0,0.255-0.128,0.17-0.605c-0.196-0.349-0.698-0.145-0.809-0.069L61.38,54.62
			L61.917,55.473z"/>
		<path fill="#CF9A2C" d="M58.792,53.429c0,0,1.316-0.307,2.089,0.76l3.245-1.997l-2.393-4.085l-4.529,2.6L58.792,53.429z"/>
		<polygon fill="#CF9A2C" points="56.966,50.285 60.563,48.162 58.6,44.85 55.002,46.927 		"/>
		<polygon fill="#CF9A2C" points="57.312,44.968 55.966,42.687 53.414,44.185 54.894,46.432 		"/>
		<path fill="#CF9A2C" d="M49.601,44.976h2.023l5.363,9.372l1.047-0.697l-5.72-9.636h-2.673c0,0-0.4-0.027-0.434,0.443
			C49.173,44.926,49.601,44.976,49.601,44.976z"/>
		<path fill="#CF9A2C" d="M52.629,48.673h-3.235c-0.316,0.022-0.771,0.104-0.736,0.738c0.033,0.636,0.704,0.534,0.704,0.534h3.268
			V48.673z"/>
		<path fill="#CF9A2C" d="M53.867,50.977h-2.225c-0.316,0.023-0.771,0.104-0.736,0.738c0.033,0.636,0.703,0.534,0.703,0.534h2.247
			L53.867,50.977z"/>
		<path fill="#CF9A2C" d="M54.027,53.25c-0.318,0.023-0.772,0.103-0.74,0.737c0.035,0.637,0.705,0.534,0.705,0.534h1.192
			l-0.012-1.271H54.027z"/>
		<path fill="#CF9A2C" d="M24.978,21.19l1.717-0.793l0.902-2.962l5.515-2.961l1.374,6.244l-0.517,0.472l0.729,0.881l1.954-1.204
			l0.579-8.817l2.896-1.503c0,0,1.331-0.793,2.168-2.403c0.135-0.3,0.186-0.751-0.115-0.836c-0.301-0.086-1.688-0.394-3.526,0.343
			l-2.917,1.845l-7.969-3.818l-1.933,1.116l0.602,1.029l0.387-0.172l4.828,4.186l-5.45,3.26l-3.111-0.514
			c-0.086,0-1.652,1.073-1.652,1.073l3.539,1.759V21.19z"/>
		<polygon fill="#CF9A2C" points="27.243,9.802 26.857,9.282 24.451,10.829 24.834,11.352 		"/>
		
			<rect x="23.693" y="11.194" transform="matrix(0.556 0.8312 -0.8312 0.556 20.172 -14.895)" fill="#CF9A2C" width="0.671" height="0.482"/>
		
			<rect x="22.92" y="11.689" transform="matrix(0.556 0.8312 -0.8312 0.556 20.2392 -14.0334)" fill="#CF9A2C" width="0.671" height="0.48"/>
		
			<rect x="22.146" y="12.224" transform="matrix(0.5557 0.8314 -0.8314 0.5557 20.3517 -13.154)" fill="#CF9A2C" width="0.673" height="0.481"/>
		<polygon fill="#CF9A2C" points="30.246,20.443 30.628,20.967 33.038,19.417 32.652,18.896 		"/>
		
			<rect x="29.488" y="20.81" transform="matrix(-0.5554 -0.8316 0.8316 -0.5554 28.8815 57.5425)" fill="#CF9A2C" width="0.672" height="0.481"/>
		
			<rect x="28.715" y="21.302" transform="matrix(-0.5537 -0.8327 0.8327 -0.5537 27.1967 57.6624)" fill="#CF9A2C" width="0.672" height="0.482"/>
		
			<rect x="27.942" y="21.838" transform="matrix(-0.5544 -0.8323 0.8323 -0.5544 25.5782 57.8539)" fill="#CF9A2C" width="0.671" height="0.482"/>
		<path fill="#CF9A2C" d="M16.929,32.079h0.396l-0.662,0.802v-6.623h-4.99h-0.627h-0.304h-0.628H5.125v6.623l-0.663-0.802h0.395
			V30.1H3.865v1.881l1.317,1.465v0.495l0.142,0.294v4.243l0.268,0.239v1.495c0,0,0.013,0.535,0.661,0.521
			c0.649-0.016,0.737-0.438,0.737-0.438s0.137,0.468,0.688,0.439c0.549-0.03,0.592-0.535,0.592-0.535V38.9h2.474h0.304h2.473v1.299
			c0,0,0.043,0.505,0.592,0.535c0.55,0.028,0.688-0.439,0.688-0.439s0.088,0.423,0.736,0.438c0.648,0.014,0.663-0.521,0.663-0.521
			v-1.495l0.267-0.239v-4.243l0.143-0.294v-0.495l1.317-1.465V30.1h-0.995V32.079z M7.607,37.214H6.498
			c-0.242,0-0.441-0.199-0.441-0.44c0-0.244,0.199-0.442,0.441-0.442h1.109c0.243,0,0.441,0.198,0.441,0.442
			C8.048,37.015,7.85,37.214,7.607,37.214z M6.344,33.568v-2.144c0-0.392,0.321-0.713,0.714-0.713h7.721
			c0.393,0,0.713,0.321,0.713,0.713v2.144c0,0.392-0.32,0.713-0.713,0.713H7.058C6.666,34.281,6.344,33.96,6.344,33.568z
			 M13.583,38.19h-5.15c-0.129,0-0.234-0.104-0.234-0.233c0-0.13,0.105-0.237,0.234-0.237h5.15c0.128,0,0.233,0.107,0.233,0.237
			C13.817,38.086,13.711,38.19,13.583,38.19z M15.369,37.214h-1.109c-0.243,0-0.442-0.199-0.442-0.44
			c0-0.244,0.199-0.442,0.442-0.442h1.109c0.243,0,0.44,0.198,0.44,0.442C15.809,37.015,15.612,37.214,15.369,37.214z
			 M16.392,29.495c-0.089-0.269-0.441-0.363-0.441-0.363l-9.928,0.095c-0.343,0.011-0.582,0.269-0.582,0.269
			c-0.107-0.504,0.286-0.748,0.286-0.748H15.8C16.515,28.855,16.392,29.495,16.392,29.495z"/>
	</g>
	<g>
		<rect x="76.932" y="60.514" fill="#6D6E70" width="126.337" height="9.22"/>
		<g>
			<path fill="#CF9A2C" d="M78.922,45.434l-0.064,0.263c0.271,0,0.452,0.021,0.544,0.063c0.091,0.042,0.16,0.108,0.206,0.195
				c0.046,0.088,0.07,0.193,0.07,0.315c0,0.266-0.052,0.633-0.156,1.101l-1.28,5.799c-0.133,0.607-0.246,1.008-0.344,1.201
				c-0.067,0.136-0.174,0.245-0.315,0.326c-0.093,0.057-0.279,0.09-0.558,0.099l-0.069,0.264h2.872l0.064-0.264
				c-0.381-0.032-0.623-0.096-0.721-0.19c-0.099-0.095-0.148-0.23-0.148-0.404c0-0.171,0.059-0.514,0.172-1.031l0.633-2.902h0.965
				c0.396,0,0.667,0.08,0.812,0.238c0.144,0.157,0.215,0.383,0.215,0.671c0,0.186-0.026,0.418-0.079,0.703h0.214l0.756-3.507h-0.203
				c-0.226,0.572-0.443,0.945-0.657,1.12c-0.212,0.177-0.533,0.264-0.962,0.264h-0.953l0.857-3.812h1.43
				c0.498,0,0.816,0.024,0.959,0.071c0.204,0.075,0.371,0.205,0.502,0.387c0.13,0.182,0.195,0.43,0.195,0.742
				c0,0.188-0.02,0.431-0.059,0.724h0.203l0.535-2.435H78.922z"/>
			<path fill="#CF9A2C" d="M88.369,49.175c0-0.176-0.034-0.309-0.102-0.401c-0.068-0.093-0.161-0.138-0.279-0.138
				c-0.182,0-0.418,0.16-0.706,0.482c-0.511,0.563-1.08,1.553-1.704,2.967l0.771-3.449l-1.85,0.396l0.038,0.263
				c0.2-0.043,0.337-0.064,0.413-0.064c0.117,0,0.211,0.039,0.284,0.115c0.054,0.056,0.08,0.128,0.08,0.212
				c0,0.22-0.058,0.583-0.172,1.094l-0.991,4.408h0.82l0.171-0.894c0.021-0.109,0.106-0.433,0.258-0.975
				c0.106-0.392,0.234-0.744,0.386-1.057c0.346-0.737,0.666-1.339,0.964-1.802c0.188-0.304,0.331-0.489,0.423-0.555
				c0.054-0.038,0.111-0.057,0.172-0.057c0.04,0,0.074,0.019,0.102,0.057c0.025,0.028,0.041,0.087,0.049,0.178
				c0.014,0.146,0.051,0.256,0.109,0.326s0.13,0.106,0.211,0.106c0.162,0,0.285-0.106,0.371-0.319
				C88.308,49.785,88.369,49.487,88.369,49.175z"/>
			<path fill="#CF9A2C" d="M91.398,48.636c-0.525,0-1.037,0.204-1.533,0.612c-0.496,0.411-0.908,0.984-1.237,1.722
				c-0.329,0.74-0.493,1.461-0.493,2.165c0,0.525,0.131,1.006,0.396,1.442c0.264,0.437,0.656,0.654,1.178,0.654
				c0.77,0,1.576-0.558,2.424-1.67l-0.113-0.206c-0.469,0.48-0.821,0.787-1.059,0.926c-0.237,0.141-0.484,0.21-0.741,0.21
				c-0.321,0-0.597-0.147-0.821-0.442c-0.225-0.296-0.337-0.655-0.337-1.075c0-0.157,0.013-0.353,0.037-0.59
				c0.726-0.11,1.288-0.261,1.688-0.456c0.604-0.286,1.061-0.666,1.371-1.135c0.236-0.359,0.354-0.735,0.354-1.128
				c0-0.28-0.092-0.521-0.272-0.725C92.057,48.737,91.777,48.636,91.398,48.636z M91.416,50.689
				c-0.22,0.364-0.549,0.675-0.988,0.935c-0.333,0.194-0.763,0.331-1.291,0.411c0.193-1.002,0.493-1.761,0.902-2.274
				c0.41-0.515,0.797-0.771,1.16-0.771c0.176,0,0.311,0.062,0.404,0.185c0.096,0.123,0.143,0.283,0.143,0.482
				C91.746,49.984,91.636,50.328,91.416,50.689z"/>
			<path fill="#CF9A2C" d="M95.185,48.636l-1.848,0.396v0.278c0.246-0.054,0.41-0.08,0.487-0.08c0.096,0,0.173,0.033,0.228,0.1
				c0.056,0.067,0.084,0.152,0.084,0.255c0,0.134-0.058,0.461-0.172,0.98l-0.697,3.181c-0.089,0.407-0.133,0.698-0.133,0.873
				s0.047,0.321,0.139,0.438s0.213,0.175,0.359,0.175c0.221,0,0.453-0.127,0.697-0.378c0.328-0.337,0.613-0.749,0.855-1.241
				l-0.188-0.164c-0.207,0.394-0.412,0.696-0.615,0.908c-0.075,0.076-0.141,0.114-0.193,0.114c-0.046,0-0.087-0.024-0.12-0.07
				c-0.034-0.048-0.051-0.111-0.051-0.186c0-0.066,0.035-0.267,0.106-0.603L95.185,48.636z"/>
			<path fill="#CF9A2C" d="M95.494,47.027c0.105-0.141,0.158-0.306,0.158-0.501c0-0.198-0.051-0.366-0.154-0.503
				c-0.104-0.138-0.23-0.206-0.381-0.206s-0.277,0.068-0.381,0.206c-0.104,0.137-0.154,0.305-0.154,0.503
				c0,0.195,0.051,0.36,0.157,0.501c0.105,0.14,0.231,0.209,0.378,0.209S95.388,47.167,95.494,47.027z"/>
			<path fill="#CF9A2C" d="M101.428,49.074h-1.446c-0.162-0.149-0.327-0.262-0.498-0.333c-0.172-0.069-0.392-0.105-0.66-0.105
				c-0.739,0-1.332,0.265-1.776,0.794c-0.444,0.531-0.667,1.132-0.667,1.803c0,0.413,0.115,0.786,0.346,1.124
				c0.23,0.335,0.542,0.553,0.936,0.652c-0.469,0.254-0.775,0.488-0.918,0.702c-0.146,0.214-0.219,0.414-0.219,0.604
				c0,0.202,0.083,0.391,0.248,0.56c-0.451,0.338-0.725,0.55-0.82,0.64c-0.154,0.142-0.281,0.325-0.384,0.544
				c-0.101,0.221-0.153,0.432-0.153,0.635c0,0.251,0.08,0.495,0.236,0.73c0.157,0.239,0.418,0.426,0.782,0.565
				c0.364,0.139,0.769,0.21,1.21,0.21c0.506,0,0.965-0.092,1.381-0.273c0.416-0.183,0.732-0.435,0.948-0.757
				c0.217-0.322,0.324-0.676,0.324-1.064c0-0.327-0.091-0.615-0.272-0.866c-0.187-0.245-0.566-0.46-1.142-0.639l-1.04-0.319
				c-0.261-0.081-0.423-0.159-0.487-0.239c-0.064-0.076-0.097-0.162-0.097-0.258c0-0.081,0.036-0.158,0.107-0.234
				c0.188-0.208,0.474-0.389,0.852-0.539c0.705-0.053,1.258-0.321,1.66-0.81c0.401-0.487,0.602-1.043,0.602-1.669
				c0-0.222-0.034-0.461-0.103-0.716h0.896L101.428,49.074z M98.669,55.592c0.386,0.104,0.646,0.239,0.779,0.405
				c0.133,0.165,0.201,0.341,0.201,0.526c0,0.363-0.182,0.66-0.545,0.89c-0.362,0.23-0.799,0.345-1.31,0.345
				c-0.593,0-1.043-0.146-1.351-0.441c-0.215-0.203-0.321-0.46-0.321-0.772c0-0.265,0.074-0.535,0.222-0.81
				c0.148-0.274,0.369-0.5,0.656-0.675C97.902,55.357,98.458,55.536,98.669,55.592z M99.462,51c-0.072,0.373-0.168,0.681-0.29,0.922
				s-0.271,0.432-0.446,0.567c-0.178,0.138-0.361,0.208-0.551,0.208c-0.238,0-0.441-0.117-0.61-0.349
				c-0.168-0.232-0.251-0.53-0.251-0.896c0-0.581,0.131-1.141,0.393-1.678c0.263-0.537,0.596-0.808,1-0.808
				c0.257,0,0.465,0.109,0.625,0.327c0.158,0.218,0.237,0.517,0.237,0.896C99.569,50.354,99.533,50.625,99.462,51z"/>
			<path fill="#CF9A2C" d="M105.465,54.336c-0.062,0.062-0.115,0.093-0.162,0.093c-0.039,0-0.074-0.022-0.104-0.065
				c-0.03-0.042-0.046-0.097-0.046-0.162c0-0.038,0.041-0.237,0.124-0.596l0.653-2.977c0.101-0.444,0.15-0.822,0.15-1.136
				c0-0.26-0.057-0.468-0.172-0.624c-0.114-0.155-0.258-0.233-0.429-0.233c-0.331,0-0.68,0.213-1.044,0.638
				c-0.365,0.428-0.872,1.288-1.523,2.585l1.506-6.894l-1.855,0.411v0.277l0.113-0.02c0.132-0.03,0.23-0.044,0.294-0.044
				c0.112,0,0.205,0.048,0.283,0.142c0.076,0.095,0.115,0.203,0.115,0.326l-0.188,0.88l-1.763,8.122h0.805l0.342-1.454
				c0.096-0.395,0.22-0.756,0.371-1.085c0.486-1.038,0.772-1.631,0.857-1.776c0.318-0.539,0.599-0.908,0.841-1.107
				c0.133-0.104,0.251-0.156,0.354-0.156c0.072,0,0.13,0.028,0.175,0.084c0.044,0.058,0.066,0.134,0.066,0.228
				c0,0.204-0.039,0.484-0.117,0.837l-0.616,2.84c-0.125,0.569-0.188,0.957-0.188,1.166c0,0.174,0.041,0.318,0.125,0.429
				c0.084,0.111,0.193,0.168,0.325,0.168c0.121,0,0.259-0.059,0.415-0.175c0.154-0.116,0.342-0.324,0.557-0.625
				c0.217-0.3,0.385-0.576,0.506-0.826l-0.166-0.137C105.869,53.839,105.668,54.128,105.465,54.336z"/>
			<path fill="#CF9A2C" d="M109.535,46.874h-0.234c-0.322,0.696-0.613,1.185-0.874,1.467c-0.261,0.281-0.589,0.493-0.98,0.636
				l-0.054,0.275h0.809l-0.895,4.111c-0.114,0.526-0.172,0.916-0.172,1.17c0,0.204,0.05,0.371,0.15,0.501
				c0.101,0.131,0.229,0.197,0.386,0.197c0.204,0,0.405-0.09,0.604-0.271c0.294-0.261,0.604-0.708,0.933-1.341l-0.177-0.179
				c-0.295,0.487-0.487,0.778-0.572,0.873c-0.146,0.166-0.265,0.249-0.354,0.249c-0.039,0-0.073-0.023-0.102-0.065
				c-0.029-0.041-0.044-0.104-0.044-0.184c0-0.133,0.05-0.424,0.15-0.873l0.921-4.189h0.837l0.091-0.445h-0.842L109.535,46.874z"/>
			<path fill="#CF9A2C" d="M119.453,54.697c-0.492,0-0.951-0.476-1.377-1.426c0.232-0.403,0.526-0.945,0.881-1.626
				c0.267-0.511,0.498-0.853,0.695-1.023c0.195-0.169,0.451-0.282,0.767-0.34v-0.27h-2.172v0.27
				c0.184,0.014,0.308,0.059,0.376,0.135c0.068,0.077,0.102,0.17,0.102,0.283c0,0.531-0.276,1.239-0.83,2.124
				c-0.375-0.951-0.691-2.134-0.948-3.545c0.794-0.339,1.343-0.741,1.649-1.206c0.309-0.462,0.461-0.947,0.461-1.454
				c0-0.403-0.105-0.736-0.318-1.005c-0.213-0.267-0.502-0.401-0.865-0.401c-0.539,0-1,0.278-1.382,0.839
				c-0.384,0.558-0.574,1.319-0.574,2.286c0,0.132,0.005,0.277,0.013,0.436c0.01,0.159,0.023,0.328,0.041,0.506
				c-1.085,0.49-1.806,0.941-2.158,1.357c-0.541,0.646-0.811,1.389-0.811,2.237c0,0.713,0.176,1.294,0.529,1.738
				c0.352,0.445,0.85,0.669,1.497,0.669c0.436,0,0.833-0.086,1.192-0.257c0.358-0.171,0.736-0.453,1.133-0.845
				c0.246,0.397,0.494,0.68,0.744,0.85c0.25,0.166,0.547,0.252,0.891,0.252c0.328,0,0.612-0.087,0.852-0.261
				c0.238-0.173,0.467-0.453,0.681-0.841h-0.241C120.032,54.525,119.758,54.697,119.453,54.697z M117.037,46.144
				c0.179-0.298,0.396-0.447,0.654-0.447c0.201,0,0.363,0.088,0.488,0.263c0.123,0.176,0.186,0.414,0.186,0.716
				c0,0.461-0.131,0.884-0.391,1.272c-0.189,0.279-0.556,0.571-1.098,0.88c-0.036-0.241-0.062-0.463-0.08-0.665
				c-0.02-0.2-0.027-0.381-0.027-0.542C116.77,46.935,116.858,46.442,117.037,46.144z M116.316,54.432
				c-0.202,0.102-0.43,0.152-0.683,0.152c-0.461,0-0.836-0.194-1.123-0.586c-0.287-0.39-0.431-0.883-0.431-1.478
				c0-0.532,0.15-1.045,0.455-1.538c0.303-0.496,0.8-0.913,1.488-1.253c0.097,0.704,0.254,1.438,0.465,2.198
				c0.213,0.764,0.432,1.382,0.661,1.854C116.797,54.113,116.518,54.329,116.316,54.432z"/>
			<path fill="#CF9A2C" d="M129.158,52.646c-0.254,0.562-0.432,0.915-0.531,1.058c-0.186,0.255-0.389,0.447-0.61,0.575
				c-0.3,0.169-0.706,0.254-1.217,0.254h-0.701c-0.214,0-0.353-0.035-0.413-0.104c-0.096-0.104-0.145-0.214-0.145-0.326
				c0-0.171,0.049-0.474,0.145-0.911l1.26-5.755c0.146-0.669,0.252-1.066,0.315-1.194c0.093-0.193,0.21-0.332,0.349-0.418
				c0.139-0.085,0.374-0.128,0.708-0.128l0.042-0.263h-2.964l-0.063,0.263c0.035,0.005,0.083,0.007,0.144,0.007
				c0.272,0,0.458,0.05,0.556,0.149s0.147,0.238,0.147,0.418c0,0.228-0.054,0.581-0.161,1.065l-1.28,5.855
				c-0.126,0.57-0.243,0.962-0.354,1.18c-0.07,0.136-0.18,0.248-0.332,0.334c-0.096,0.051-0.288,0.082-0.574,0.091l-0.073,0.264
				h5.384l0.708-2.733h-0.198L129.158,52.646z"/>
			<path fill="#CF9A2C" d="M133.311,48.636c-0.472,0-0.96,0.203-1.467,0.608c-0.505,0.409-0.908,0.964-1.211,1.662
				c-0.301,0.701-0.451,1.399-0.451,2.094c0,0.659,0.154,1.196,0.462,1.608c0.31,0.416,0.71,0.623,1.198,0.623
				c0.479,0,0.971-0.203,1.479-0.612c0.508-0.407,0.904-0.959,1.188-1.654c0.283-0.694,0.426-1.397,0.426-2.107
				c0-0.658-0.153-1.192-0.458-1.605C134.17,48.842,133.781,48.636,133.311,48.636z M133.383,53.388
				c-0.441,0.992-0.914,1.486-1.418,1.486c-0.26,0-0.477-0.121-0.648-0.365c-0.17-0.242-0.258-0.589-0.258-1.04
				c0-0.983,0.222-1.973,0.662-2.97c0.441-0.996,0.926-1.495,1.449-1.495c0.258,0,0.469,0.117,0.631,0.352
				c0.162,0.233,0.243,0.571,0.243,1.012C134.044,51.39,133.824,52.397,133.383,53.388z"/>
			<path fill="#CF9A2C" d="M139.118,48.741c-0.171-0.069-0.392-0.105-0.659-0.105c-0.738,0-1.331,0.265-1.775,0.794
				c-0.445,0.531-0.668,1.132-0.668,1.803c0,0.413,0.115,0.786,0.346,1.124c0.23,0.335,0.543,0.553,0.936,0.652
				c-0.469,0.254-0.774,0.488-0.919,0.702s-0.216,0.414-0.216,0.604c0,0.202,0.08,0.391,0.246,0.56
				c-0.451,0.338-0.725,0.55-0.821,0.64c-0.152,0.142-0.28,0.325-0.382,0.544c-0.103,0.221-0.154,0.432-0.154,0.635
				c0,0.251,0.08,0.495,0.237,0.73c0.156,0.239,0.417,0.426,0.781,0.565c0.365,0.139,0.769,0.21,1.21,0.21
				c0.505,0,0.965-0.092,1.381-0.273c0.416-0.183,0.732-0.435,0.949-0.757c0.215-0.322,0.322-0.676,0.322-1.064
				c0-0.327-0.09-0.615-0.271-0.866c-0.188-0.245-0.566-0.46-1.143-0.639l-1.039-0.319c-0.261-0.081-0.422-0.159-0.486-0.239
				c-0.064-0.076-0.097-0.162-0.097-0.258c0-0.081,0.036-0.158,0.105-0.234c0.191-0.208,0.474-0.389,0.853-0.539
				c0.703-0.053,1.258-0.321,1.661-0.81c0.4-0.487,0.601-1.043,0.601-1.669c0-0.222-0.035-0.461-0.103-0.716h0.896l0.155-0.74
				h-1.446C139.456,48.925,139.29,48.812,139.118,48.741z M138.304,55.592c0.386,0.104,0.646,0.239,0.78,0.405
				c0.134,0.165,0.2,0.341,0.2,0.526c0,0.363-0.181,0.66-0.544,0.89c-0.363,0.23-0.799,0.345-1.311,0.345
				c-0.592,0-1.041-0.146-1.35-0.441c-0.214-0.203-0.32-0.46-0.32-0.772c0-0.265,0.074-0.535,0.222-0.81s0.367-0.5,0.656-0.675
				C137.539,55.357,138.094,55.536,138.304,55.592z M139.098,51c-0.072,0.373-0.168,0.681-0.291,0.922
				c-0.121,0.241-0.27,0.432-0.447,0.567c-0.176,0.138-0.359,0.208-0.549,0.208c-0.238,0-0.443-0.117-0.61-0.349
				c-0.168-0.232-0.251-0.53-0.251-0.896c0-0.581,0.131-1.141,0.393-1.678c0.264-0.537,0.597-0.808,1-0.808
				c0.257,0,0.465,0.109,0.624,0.327s0.238,0.517,0.238,0.896C139.204,50.354,139.17,50.625,139.098,51z"/>
			<path fill="#CF9A2C" d="M143.668,46.023c-0.104-0.138-0.23-0.206-0.38-0.206s-0.276,0.068-0.38,0.206
				c-0.104,0.137-0.156,0.305-0.156,0.503c0,0.195,0.053,0.36,0.158,0.501c0.105,0.14,0.231,0.209,0.378,0.209
				c0.146,0,0.272-0.069,0.378-0.209c0.104-0.141,0.158-0.306,0.158-0.501C143.824,46.328,143.771,46.16,143.668,46.023z"/>
			<path fill="#CF9A2C" d="M143.357,48.636l-1.848,0.396v0.278c0.246-0.054,0.408-0.08,0.486-0.08c0.098,0,0.173,0.033,0.228,0.1
				c0.056,0.067,0.083,0.152,0.083,0.255c0,0.134-0.057,0.461-0.171,0.98l-0.697,3.181c-0.089,0.407-0.134,0.698-0.134,0.873
				s0.047,0.321,0.14,0.438c0.095,0.116,0.214,0.175,0.358,0.175c0.223,0,0.454-0.127,0.697-0.378
				c0.328-0.337,0.614-0.749,0.857-1.241l-0.188-0.164c-0.207,0.394-0.414,0.696-0.617,0.908c-0.074,0.076-0.137,0.114-0.192,0.114
				c-0.046,0-0.087-0.024-0.12-0.07c-0.033-0.048-0.051-0.111-0.051-0.186c0-0.066,0.035-0.267,0.105-0.603L143.357,48.636z"/>
			<path fill="#CF9A2C" d="M147.274,48.968c-0.061,0-0.183-0.045-0.366-0.137c-0.186-0.093-0.302-0.146-0.352-0.159
				c-0.094-0.025-0.197-0.036-0.311-0.036c-0.397,0-0.721,0.158-0.974,0.475c-0.252,0.318-0.377,0.705-0.377,1.166
				c0,0.25,0.046,0.5,0.136,0.752c0.092,0.251,0.297,0.627,0.617,1.128c0.319,0.502,0.529,0.895,0.629,1.178
				c0.057,0.162,0.086,0.336,0.086,0.525c0,0.294-0.08,0.541-0.238,0.742c-0.159,0.201-0.375,0.303-0.646,0.303
				c-0.354,0-0.632-0.15-0.836-0.447c-0.204-0.298-0.316-0.807-0.337-1.527h-0.199l-0.327,2.302h0.198
				c0.082-0.218,0.204-0.327,0.365-0.327c0.064,0,0.154,0.028,0.272,0.085c0.336,0.16,0.632,0.242,0.89,0.242
				c0.473,0,0.861-0.19,1.17-0.573c0.311-0.381,0.465-0.816,0.465-1.31c0-0.302-0.067-0.623-0.203-0.965
				c-0.136-0.341-0.438-0.848-0.9-1.521c-0.176-0.254-0.289-0.454-0.34-0.596c-0.053-0.142-0.079-0.29-0.079-0.447
				c0-0.227,0.065-0.422,0.196-0.582c0.131-0.161,0.306-0.241,0.527-0.241c0.275,0,0.506,0.145,0.691,0.433
				c0.186,0.289,0.287,0.751,0.307,1.386h0.197l0.326-2.18h-0.203C147.557,48.858,147.428,48.968,147.274,48.968z"/>
			<path fill="#CF9A2C" d="M151.004,46.874h-0.236c-0.32,0.696-0.611,1.185-0.872,1.467c-0.261,0.281-0.589,0.493-0.982,0.636
				l-0.053,0.275h0.809l-0.894,4.111c-0.115,0.526-0.172,0.916-0.172,1.17c0,0.204,0.05,0.371,0.15,0.501
				c0.1,0.131,0.227,0.197,0.385,0.197c0.204,0,0.405-0.09,0.605-0.271c0.293-0.261,0.604-0.708,0.933-1.341l-0.177-0.179
				c-0.297,0.487-0.487,0.778-0.573,0.873c-0.146,0.166-0.265,0.249-0.354,0.249c-0.039,0-0.072-0.023-0.102-0.065
				c-0.027-0.041-0.043-0.104-0.043-0.184c0-0.133,0.051-0.424,0.151-0.873l0.921-4.189h0.836l0.092-0.445h-0.843L151.004,46.874z"
				/>
			<path fill="#CF9A2C" d="M153.656,45.817c-0.15,0-0.277,0.068-0.381,0.206c-0.104,0.137-0.155,0.305-0.155,0.503
				c0,0.195,0.053,0.36,0.157,0.501c0.105,0.14,0.232,0.209,0.379,0.209c0.146,0,0.272-0.069,0.377-0.209
				c0.105-0.141,0.158-0.306,0.158-0.501c0-0.198-0.053-0.366-0.155-0.503C153.933,45.886,153.807,45.817,153.656,45.817z"/>
			<path fill="#CF9A2C" d="M153.727,48.636l-1.851,0.396v0.278c0.249-0.054,0.41-0.08,0.489-0.08c0.096,0,0.172,0.033,0.227,0.1
				c0.057,0.067,0.084,0.152,0.084,0.255c0,0.134-0.059,0.461-0.172,0.98l-0.697,3.181c-0.09,0.407-0.134,0.698-0.134,0.873
				s0.046,0.321,0.14,0.438c0.093,0.116,0.212,0.175,0.359,0.175c0.222,0,0.453-0.127,0.697-0.378
				c0.327-0.337,0.613-0.749,0.857-1.241l-0.189-0.164c-0.207,0.394-0.412,0.696-0.615,0.908c-0.074,0.076-0.141,0.114-0.193,0.114
				c-0.045,0-0.086-0.024-0.119-0.07c-0.035-0.048-0.051-0.111-0.051-0.186c0-0.066,0.035-0.267,0.106-0.603L153.727,48.636z"/>
			<path fill="#CF9A2C" d="M157.76,48.636c-0.497,0-1.002,0.219-1.52,0.655c-0.516,0.439-0.926,1.008-1.231,1.709
				c-0.306,0.7-0.458,1.412-0.458,2.135c0,0.641,0.141,1.148,0.426,1.526c0.283,0.381,0.68,0.57,1.187,0.57
				c0.422,0,0.821-0.14,1.2-0.416c0.379-0.277,0.754-0.711,1.125-1.303l-0.155-0.186c-0.336,0.479-0.638,0.809-0.907,0.991
				c-0.271,0.181-0.543,0.272-0.817,0.272c-0.357,0-0.64-0.141-0.847-0.421c-0.207-0.281-0.312-0.665-0.312-1.148
				c0-0.728,0.147-1.456,0.44-2.186c0.242-0.601,0.535-1.064,0.878-1.393c0.343-0.325,0.69-0.489,1.04-0.489
				c0.188,0,0.336,0.047,0.439,0.142c0.066,0.067,0.102,0.148,0.102,0.25c0,0.052-0.009,0.101-0.027,0.147
				c-0.018,0.047-0.068,0.126-0.152,0.232c-0.084,0.105-0.139,0.197-0.166,0.274c-0.027,0.074-0.04,0.157-0.04,0.247
				c0,0.142,0.036,0.26,0.11,0.354c0.072,0.096,0.164,0.144,0.275,0.144c0.146,0,0.27-0.082,0.369-0.241
				c0.137-0.209,0.205-0.459,0.205-0.753c0-0.313-0.098-0.576-0.291-0.791C158.44,48.742,158.149,48.636,157.76,48.636z"/>
			<path fill="#CF9A2C" d="M162.514,48.968c-0.061,0-0.183-0.045-0.367-0.137c-0.184-0.093-0.301-0.146-0.351-0.159
				c-0.094-0.025-0.196-0.036-0.312-0.036c-0.396,0-0.721,0.158-0.973,0.475c-0.252,0.318-0.377,0.705-0.377,1.166
				c0,0.25,0.045,0.5,0.137,0.752c0.092,0.251,0.297,0.627,0.615,1.128c0.32,0.502,0.53,0.895,0.629,1.178
				c0.059,0.162,0.088,0.336,0.088,0.525c0,0.294-0.081,0.541-0.24,0.742s-0.375,0.303-0.646,0.303c-0.353,0-0.631-0.15-0.836-0.447
				c-0.204-0.298-0.314-0.807-0.337-1.527h-0.197l-0.328,2.302h0.199c0.082-0.218,0.203-0.327,0.363-0.327
				c0.064,0,0.155,0.028,0.273,0.085c0.336,0.16,0.633,0.242,0.889,0.242c0.473,0,0.862-0.19,1.172-0.573
				c0.31-0.381,0.463-0.816,0.463-1.31c0-0.302-0.067-0.623-0.203-0.965c-0.135-0.341-0.435-0.848-0.9-1.521
				c-0.175-0.254-0.289-0.454-0.34-0.596s-0.078-0.29-0.078-0.447c0-0.227,0.064-0.422,0.195-0.582
				c0.131-0.161,0.307-0.241,0.528-0.241c0.275,0,0.505,0.145,0.691,0.433c0.185,0.289,0.288,0.751,0.306,1.386h0.198l0.327-2.18
				h-0.205C162.797,48.858,162.666,48.968,162.514,48.968z"/>
			<path fill="#CF9A2C" d="M173.658,45.213c-0.149,0.222-0.257,0.358-0.321,0.405c-0.063,0.047-0.14,0.071-0.226,0.071
				c-0.085,0-0.225-0.047-0.418-0.144c-0.438-0.222-0.836-0.333-1.189-0.333c-0.753,0-1.5,0.284-2.242,0.853
				c-0.742,0.567-1.324,1.348-1.75,2.343c-0.425,0.993-0.637,2.016-0.637,3.065c0,0.688,0.119,1.329,0.359,1.924
				c0.238,0.597,0.588,1.062,1.045,1.388c0.456,0.33,0.981,0.496,1.574,0.496c0.668,0,1.242-0.196,1.721-0.588
				c0.479-0.39,0.915-0.999,1.307-1.827h-0.252c-0.332,0.61-0.69,1.062-1.08,1.355c-0.387,0.294-0.829,0.439-1.326,0.439
				c-0.656,0-1.19-0.276-1.602-0.833c-0.41-0.556-0.616-1.301-0.616-2.233c0-0.914,0.144-1.813,0.429-2.704
				c0.348-1.078,0.825-1.913,1.436-2.505c0.479-0.464,1.039-0.696,1.678-0.696c0.239,0,0.457,0.046,0.654,0.139
				c0.196,0.093,0.358,0.219,0.486,0.383c0.129,0.163,0.226,0.355,0.29,0.579c0.063,0.223,0.105,0.477,0.122,0.759l0.023,0.782
				h0.193l0.541-3.118H173.658z"/>
			<path fill="#CF9A2C" d="M176.906,48.636c-0.473,0-0.961,0.203-1.467,0.608c-0.504,0.409-0.908,0.964-1.211,1.662
				c-0.301,0.701-0.451,1.399-0.451,2.094c0,0.659,0.154,1.196,0.463,1.608c0.308,0.416,0.709,0.623,1.197,0.623
				c0.479,0,0.972-0.203,1.479-0.612c0.507-0.407,0.903-0.959,1.187-1.654c0.283-0.694,0.426-1.397,0.426-2.107
				c0-0.658-0.152-1.192-0.459-1.605C177.768,48.842,177.377,48.636,176.906,48.636z M176.978,53.388
				c-0.44,0.992-0.913,1.486-1.416,1.486c-0.263,0-0.478-0.121-0.647-0.365c-0.172-0.242-0.26-0.589-0.26-1.04
				c0-0.983,0.223-1.973,0.662-2.97c0.441-0.996,0.926-1.495,1.449-1.495c0.258,0,0.467,0.117,0.631,0.352
				c0.162,0.233,0.244,0.571,0.244,1.012C177.641,51.39,177.42,52.397,176.978,53.388z"/>
			<path fill="#CF9A2C" d="M179.852,53.789c-0.148,0-0.276,0.07-0.383,0.209c-0.104,0.141-0.157,0.31-0.157,0.507
				c0,0.2,0.053,0.369,0.157,0.51c0.106,0.139,0.234,0.208,0.383,0.208c0.15,0,0.281-0.069,0.387-0.208
				c0.107-0.141,0.162-0.31,0.162-0.51c0-0.197-0.054-0.366-0.158-0.507C180.136,53.859,180.007,53.789,179.852,53.789z"/>
			<path fill="#CF9A2C" d="M182.585,53.782c-0.143,0-0.267,0.073-0.372,0.221c-0.105,0.146-0.158,0.321-0.158,0.524
				c0,0.104,0.013,0.197,0.037,0.275c0.012,0.044,0.059,0.121,0.145,0.236c0.086,0.113,0.137,0.189,0.15,0.227
				c0.021,0.071,0.032,0.148,0.032,0.234c0,0.175-0.064,0.356-0.193,0.547c-0.167,0.246-0.385,0.45-0.653,0.611l0.107,0.226
				c0.476-0.235,0.838-0.568,1.088-1.001c0.249-0.43,0.375-0.854,0.375-1.277c0-0.236-0.057-0.434-0.169-0.589
				C182.861,53.859,182.732,53.782,182.585,53.782z"/>
			<path fill="#CF9A2C" d="M192.574,52.646c-0.254,0.562-0.432,0.915-0.531,1.058c-0.186,0.255-0.389,0.447-0.61,0.575
				c-0.3,0.169-0.706,0.254-1.216,0.254h-0.703c-0.215,0-0.352-0.035-0.413-0.104c-0.095-0.104-0.144-0.214-0.144-0.326
				c0-0.171,0.049-0.474,0.144-0.911l1.261-5.755c0.145-0.669,0.251-1.066,0.316-1.194c0.092-0.193,0.208-0.332,0.348-0.418
				c0.139-0.085,0.375-0.128,0.707-0.128l0.043-0.263h-2.964l-0.063,0.263c0.035,0.005,0.084,0.007,0.145,0.007
				c0.271,0,0.457,0.05,0.555,0.149s0.148,0.238,0.148,0.418c0,0.228-0.055,0.581-0.162,1.065l-1.281,5.855
				c-0.125,0.57-0.242,0.962-0.354,1.18c-0.071,0.136-0.182,0.248-0.332,0.334c-0.096,0.051-0.287,0.082-0.573,0.091l-0.074,0.264
				h5.384l0.709-2.733h-0.199L192.574,52.646z"/>
			<path fill="#CF9A2C" d="M195.623,49.252h0.836l0.091-0.445h-0.843l0.42-1.933h-0.236c-0.322,0.696-0.612,1.185-0.873,1.467
				c-0.261,0.281-0.589,0.493-0.982,0.636l-0.053,0.275h0.81l-0.895,4.111c-0.115,0.526-0.172,0.916-0.172,1.17
				c0,0.204,0.05,0.371,0.149,0.501c0.101,0.131,0.229,0.197,0.387,0.197c0.203,0,0.405-0.09,0.605-0.271
				c0.292-0.261,0.604-0.708,0.932-1.341l-0.176-0.179c-0.297,0.487-0.488,0.778-0.574,0.873c-0.146,0.166-0.264,0.249-0.354,0.249
				c-0.039,0-0.074-0.023-0.102-0.065c-0.029-0.041-0.043-0.104-0.043-0.184c0-0.133,0.049-0.424,0.15-0.873L195.623,49.252z"/>
			<path fill="#CF9A2C" d="M200.574,54.343c-0.066,0.062-0.121,0.093-0.167,0.093c-0.032,0-0.062-0.022-0.094-0.064
				c-0.03-0.043-0.045-0.088-0.045-0.135c0-0.141,0.05-0.439,0.149-0.895l1.844-8.377l-1.844,0.404v0.265
				c0.189-0.035,0.325-0.051,0.407-0.051c0.117,0,0.214,0.039,0.289,0.12c0.054,0.066,0.081,0.149,0.081,0.249
				c0,0.122-0.021,0.279-0.064,0.468c-0.025,0.104-0.058,0.244-0.098,0.419l-0.525,2.472c-0.134-0.243-0.271-0.415-0.412-0.52
				c-0.139-0.104-0.305-0.155-0.498-0.155c-0.367,0-0.771,0.201-1.211,0.603c-0.557,0.502-1.004,1.153-1.344,1.952
				c-0.34,0.801-0.51,1.553-0.51,2.258c0,0.549,0.101,0.983,0.303,1.304c0.202,0.318,0.439,0.479,0.71,0.479
				c0.269,0,0.548-0.141,0.841-0.42c0.426-0.407,0.897-1.142,1.415-2.2l-0.21,0.879c-0.105,0.455-0.16,0.817-0.16,1.087
				c0,0.208,0.04,0.37,0.117,0.482c0.08,0.114,0.18,0.172,0.3,0.172c0.231,0,0.476-0.147,0.737-0.442
				c0.264-0.292,0.523-0.676,0.781-1.148l-0.184-0.15C200.898,53.945,200.694,54.23,200.574,54.343z M199.432,52.797
				c-0.561,1.062-1.027,1.597-1.398,1.597c-0.164,0-0.305-0.095-0.422-0.282c-0.118-0.187-0.178-0.457-0.178-0.812
				c0-0.899,0.244-1.84,0.731-2.824c0.487-0.985,0.956-1.478,1.405-1.478c0.205,0,0.373,0.092,0.505,0.276s0.198,0.43,0.198,0.732
				C200.273,50.799,199.992,51.729,199.432,52.797z"/>
			<path fill="#CF9A2C" d="M202.723,53.789c-0.151,0-0.279,0.07-0.384,0.209c-0.104,0.141-0.159,0.31-0.159,0.507
				c0,0.2,0.055,0.369,0.159,0.51c0.104,0.139,0.232,0.208,0.384,0.208c0.148,0,0.277-0.069,0.386-0.208
				c0.106-0.141,0.161-0.31,0.161-0.51c0-0.197-0.055-0.366-0.159-0.507C203.006,53.859,202.875,53.789,202.723,53.789z"/>
			<path fill="#CF9A2C" d="M159.665,30.737c5.36,0,9.708-4.737,9.708-10.578c0-5.842-4.348-10.578-9.708-10.578
				c-5.362,0-9.708,4.736-9.708,10.578C149.957,26,154.303,30.737,159.665,30.737z M155.205,15.439h8.917v9.438h-8.917V15.439z"/>
			<path fill="#CF9A2C" d="M142.431,26.731c2.492,7.757,9.265,13.32,17.232,13.32c10.087,0,18.259-8.905,18.259-19.894
				c0-10.985-8.172-19.891-18.259-19.891c-7.968,0-14.74,5.563-17.232,13.318c-2.491-7.755-9.263-13.318-17.234-13.318
				c-10.082,0-18.257,8.905-18.257,19.891c0,10.988,8.175,19.894,18.257,19.894C133.168,40.052,139.939,34.488,142.431,26.731z
				 M159.664,6c7.177,0,12.994,6.34,12.994,14.16c0,7.818-5.817,14.158-12.994,14.158c-7.176,0-12.994-6.34-12.994-14.158
				C146.67,12.34,152.488,6,159.664,6z M112.203,20.16c0-7.82,5.818-14.16,12.994-14.16s12.994,6.34,12.994,14.16
				c0,7.818-5.818,14.158-12.994,14.158S112.203,27.979,112.203,20.16z"/>
			<path fill="#CF9A2C" d="M134.905,20.159c0-5.842-4.347-10.578-9.707-10.578c-5.362,0-9.71,4.736-9.71,10.578
				c0,5.841,4.348,10.578,9.71,10.578C130.559,30.737,134.905,26,134.905,20.159z M120.738,15.439h8.917v9.438h-8.917V15.439z"/>
			<path fill="#CF9A2C" d="M90.041,20.436c0-6.147,7.012-15.938,15.647-9.652l1.252-8.058c0,0-29.938-8.762-29.931,19.832
				c0.133,10.718,10.188,23.221,29.931,15.879l-1.021-7.606C103.207,34.068,90.175,35.127,90.041,20.436z"/>
			<polygon fill="#CF9A2C" points="190.883,28.912 190.883,0.268 178.498,0.268 178.498,38.761 203.27,38.761 203.27,28.912 			"/>
		</g>
		<g>
			<path fill="#FFFFFF" d="M82.285,65.75l0.93,0.295c-0.143,0.52-0.379,0.903-0.709,1.155c-0.333,0.249-0.753,0.376-1.264,0.376
				c-0.63,0-1.147-0.217-1.553-0.646c-0.406-0.431-0.607-1.02-0.607-1.765c0-0.791,0.202-1.405,0.611-1.841
				c0.407-0.438,0.943-0.657,1.607-0.657c0.58,0,1.053,0.173,1.416,0.515c0.215,0.204,0.377,0.495,0.485,0.873l-0.949,0.229
				c-0.056-0.247-0.173-0.443-0.351-0.585c-0.178-0.141-0.396-0.214-0.65-0.214c-0.352,0-0.637,0.127-0.854,0.381
				c-0.22,0.252-0.33,0.659-0.33,1.227c0,0.601,0.108,1.026,0.324,1.281s0.497,0.382,0.843,0.382c0.254,0,0.473-0.079,0.656-0.242
				C82.074,66.354,82.207,66.098,82.285,65.75"/>
			<path fill="#FFFFFF" d="M83.841,65.152c0-0.483,0.072-0.889,0.219-1.217c0.107-0.243,0.254-0.46,0.44-0.652
				c0.188-0.192,0.392-0.334,0.613-0.428c0.296-0.123,0.637-0.188,1.024-0.188c0.697,0,1.258,0.217,1.677,0.65
				c0.421,0.434,0.631,1.037,0.631,1.81c0,0.768-0.208,1.365-0.625,1.801c-0.417,0.431-0.974,0.647-1.671,0.647
				c-0.705,0-1.268-0.216-1.684-0.646C84.05,66.5,83.841,65.906,83.841,65.152 M84.83,65.119c0,0.537,0.123,0.944,0.373,1.222
				c0.247,0.276,0.562,0.416,0.944,0.416s0.696-0.136,0.94-0.413c0.245-0.273,0.368-0.688,0.368-1.237
				c0-0.545-0.12-0.949-0.358-1.216c-0.238-0.268-0.555-0.404-0.95-0.404c-0.395,0-0.713,0.138-0.954,0.409
				C84.951,64.165,84.83,64.572,84.83,65.119"/>
			<path fill="#FFFFFF" d="M89,65.152c0-0.483,0.072-0.889,0.217-1.217c0.107-0.243,0.256-0.46,0.441-0.652
				c0.187-0.192,0.393-0.334,0.613-0.428c0.297-0.123,0.637-0.188,1.023-0.188c0.699,0,1.258,0.217,1.678,0.65
				c0.421,0.434,0.631,1.037,0.631,1.81c0,0.768-0.209,1.365-0.625,1.801c-0.416,0.431-0.974,0.647-1.672,0.647
				c-0.703,0-1.266-0.216-1.684-0.646C89.207,66.5,89,65.906,89,65.152 M89.987,65.119c0,0.537,0.124,0.944,0.372,1.222
				c0.247,0.276,0.564,0.416,0.945,0.416c0.383,0,0.695-0.136,0.939-0.413c0.246-0.273,0.369-0.688,0.369-1.237
				c0-0.545-0.119-0.949-0.358-1.216c-0.239-0.268-0.556-0.404-0.95-0.404c-0.396,0-0.713,0.138-0.955,0.409
				C90.108,64.165,89.987,64.572,89.987,65.119"/>
			<polygon fill="#FFFFFF" points="94.376,67.494 94.376,62.789 95.335,62.789 95.335,66.695 97.716,66.695 97.716,67.494 			"/>
			<path fill="#FFFFFF" d="M100.123,67.494V62.75h1.537c0.584,0,0.963,0.023,1.141,0.07c0.271,0.073,0.5,0.227,0.684,0.465
				c0.183,0.238,0.273,0.547,0.273,0.924c0,0.292-0.052,0.537-0.158,0.735c-0.105,0.198-0.239,0.355-0.404,0.468
				c-0.162,0.113-0.328,0.189-0.497,0.225c-0.229,0.046-0.559,0.067-0.992,0.067h-0.627v1.79H100.123z M101.08,63.551v1.348h0.526
				c0.378,0,0.63-0.024,0.757-0.074c0.127-0.049,0.227-0.128,0.299-0.231c0.072-0.106,0.109-0.23,0.109-0.369
				c0-0.173-0.051-0.317-0.154-0.431c-0.1-0.11-0.229-0.18-0.383-0.206c-0.115-0.024-0.345-0.036-0.691-0.036H101.08z"/>
			<polygon fill="#FFFFFF" points="104.546,67.494 104.546,62.749 108.064,62.749 108.064,63.551 105.504,63.551 105.504,64.604 
				107.887,64.604 107.887,65.404 105.504,65.404 105.504,66.695 108.154,66.695 108.154,67.494 			"/>
			<path fill="#FFFFFF" d="M108.773,65.152c0-0.483,0.072-0.889,0.217-1.217c0.109-0.243,0.254-0.46,0.441-0.652
				s0.391-0.334,0.613-0.428c0.295-0.123,0.639-0.188,1.023-0.188c0.699,0,1.258,0.217,1.678,0.65s0.629,1.037,0.629,1.81
				c0,0.768-0.207,1.365-0.623,1.801c-0.417,0.431-0.973,0.647-1.67,0.647c-0.708,0-1.269-0.216-1.685-0.646
				C108.98,66.5,108.773,65.906,108.773,65.152 M109.761,65.119c0,0.537,0.122,0.944,0.372,1.222
				c0.248,0.276,0.562,0.416,0.945,0.416c0.381,0,0.695-0.136,0.94-0.413c0.244-0.273,0.366-0.688,0.366-1.237
				c0-0.545-0.117-0.949-0.356-1.216c-0.239-0.268-0.556-0.404-0.95-0.404s-0.714,0.138-0.955,0.409
				C109.881,64.165,109.761,64.572,109.761,65.119"/>
			<path fill="#FFFFFF" d="M114.124,67.494V62.75h1.538c0.582,0,0.961,0.023,1.14,0.07c0.272,0.073,0.499,0.227,0.683,0.465
				c0.183,0.238,0.274,0.547,0.274,0.924c0,0.292-0.052,0.537-0.157,0.735c-0.106,0.198-0.24,0.355-0.404,0.468
				c-0.162,0.113-0.328,0.189-0.496,0.225c-0.229,0.046-0.561,0.067-0.994,0.067h-0.625v1.79H114.124z M115.082,63.551v1.348h0.524
				c0.377,0,0.63-0.024,0.761-0.074c0.124-0.049,0.227-0.128,0.297-0.231c0.072-0.106,0.108-0.23,0.108-0.369
				c0-0.173-0.052-0.317-0.153-0.431c-0.102-0.11-0.229-0.18-0.384-0.206c-0.115-0.024-0.346-0.036-0.69-0.036H115.082z"/>
			<polygon fill="#FFFFFF" points="118.572,67.494 118.572,62.789 119.531,62.789 119.531,66.695 121.913,66.695 121.913,67.494 			
				"/>
			<polygon fill="#FFFFFF" points="122.596,67.494 122.596,62.749 126.115,62.749 126.115,63.551 123.555,63.551 123.555,64.604 
				125.938,64.604 125.938,65.404 123.555,65.404 123.555,66.695 126.205,66.695 126.205,67.494 			"/>
			<polygon fill="#FFFFFF" points="129.533,67.494 128.4,62.749 129.382,62.749 130.098,66.009 130.964,62.749 132.104,62.749 
				132.937,66.066 133.664,62.749 134.629,62.749 133.477,67.494 132.461,67.494 131.516,63.945 130.572,67.494 			"/>
			<rect x="135.09" y="62.75" fill="#FFFFFF" width="0.957" height="4.744"/>
			<polygon fill="#FFFFFF" points="138.028,67.494 138.028,63.551 136.621,63.551 136.621,62.749 140.393,62.749 140.393,63.551 
				138.986,63.551 138.986,67.494 			"/>
			<polygon fill="#FFFFFF" points="141.014,67.494 141.014,62.749 141.973,62.749 141.973,64.617 143.85,64.617 143.85,62.749 
				144.809,62.749 144.809,67.494 143.85,67.494 143.85,65.42 141.973,65.42 141.973,67.494 			"/>
			<path fill="#FFFFFF" d="M150.678,65.75l0.93,0.295c-0.145,0.52-0.381,0.903-0.711,1.155c-0.332,0.249-0.752,0.376-1.262,0.376
				c-0.63,0-1.148-0.217-1.554-0.646c-0.405-0.431-0.608-1.02-0.608-1.765c0-0.791,0.203-1.405,0.611-1.841
				c0.408-0.438,0.945-0.657,1.609-0.657c0.58,0,1.051,0.173,1.415,0.515c0.216,0.204,0.378,0.495,0.485,0.873l-0.948,0.229
				c-0.058-0.247-0.173-0.443-0.352-0.585c-0.179-0.141-0.395-0.214-0.649-0.214c-0.352,0-0.637,0.127-0.856,0.381
				c-0.219,0.252-0.327,0.659-0.327,1.227c0,0.601,0.107,1.026,0.322,1.281c0.216,0.255,0.496,0.382,0.842,0.382
				c0.254,0,0.475-0.079,0.657-0.242C150.467,66.354,150.598,66.098,150.678,65.75"/>
			<path fill="#FFFFFF" d="M152.233,65.152c0-0.483,0.074-0.889,0.218-1.217c0.108-0.243,0.255-0.46,0.442-0.652
				c0.187-0.192,0.392-0.334,0.612-0.428c0.296-0.123,0.638-0.188,1.023-0.188c0.701,0,1.26,0.217,1.679,0.65
				c0.42,0.434,0.631,1.037,0.631,1.81c0,0.768-0.21,1.365-0.626,1.801c-0.417,0.431-0.974,0.647-1.67,0.647
				c-0.706,0-1.268-0.216-1.682-0.646C152.443,66.5,152.233,65.906,152.233,65.152 M153.222,65.119c0,0.537,0.124,0.944,0.372,1.222
				c0.248,0.276,0.564,0.416,0.945,0.416c0.383,0,0.695-0.136,0.941-0.413c0.244-0.273,0.367-0.688,0.367-1.237
				c0-0.545-0.119-0.949-0.359-1.216c-0.238-0.268-0.553-0.404-0.949-0.404c-0.395,0-0.712,0.138-0.953,0.409
				C153.344,64.165,153.222,64.572,153.222,65.119"/>
			<path fill="#FFFFFF" d="M157.395,65.152c0-0.483,0.07-0.889,0.214-1.217c0.108-0.243,0.256-0.46,0.443-0.652
				c0.185-0.192,0.39-0.334,0.612-0.428c0.296-0.123,0.637-0.188,1.023-0.188c0.699,0,1.26,0.217,1.68,0.65
				c0.418,0.434,0.629,1.037,0.629,1.81c0,0.768-0.209,1.365-0.627,1.801c-0.415,0.431-0.971,0.647-1.668,0.647
				c-0.706,0-1.268-0.216-1.684-0.646C157.6,66.5,157.395,65.906,157.395,65.152 M158.38,65.119c0,0.537,0.123,0.944,0.372,1.222
				c0.248,0.276,0.563,0.416,0.944,0.416c0.383,0,0.696-0.136,0.941-0.413c0.245-0.273,0.366-0.688,0.366-1.237
				c0-0.545-0.118-0.949-0.355-1.216c-0.239-0.268-0.557-0.404-0.952-0.404c-0.394,0-0.712,0.138-0.954,0.409
				C158.5,64.165,158.38,64.572,158.38,65.119"/>
			<polygon fill="#FFFFFF" points="162.77,67.494 162.77,62.789 163.729,62.789 163.729,66.695 166.111,66.695 166.111,67.494 			
				"/>
			<path fill="#FFFFFF" d="M168.273,65.95l0.933-0.092c0.056,0.316,0.17,0.544,0.341,0.69c0.171,0.147,0.402,0.223,0.695,0.223
				c0.309,0,0.54-0.068,0.697-0.199c0.156-0.128,0.234-0.28,0.234-0.457c0-0.112-0.033-0.206-0.1-0.286
				c-0.066-0.079-0.182-0.146-0.345-0.205c-0.11-0.037-0.368-0.108-0.767-0.208c-0.514-0.128-0.874-0.284-1.082-0.469
				c-0.291-0.261-0.436-0.579-0.436-0.955c0-0.24,0.067-0.468,0.203-0.678c0.139-0.212,0.335-0.371,0.595-0.481
				c0.257-0.111,0.568-0.165,0.934-0.165c0.595,0,1.044,0.131,1.345,0.392c0.301,0.263,0.459,0.609,0.475,1.046l-0.959,0.042
				c-0.041-0.244-0.129-0.418-0.263-0.524c-0.136-0.109-0.337-0.161-0.608-0.161c-0.278,0-0.494,0.058-0.652,0.172
				c-0.102,0.072-0.152,0.172-0.152,0.294c0,0.11,0.047,0.208,0.143,0.289c0.12,0.102,0.413,0.206,0.881,0.317
				c0.465,0.109,0.811,0.222,1.033,0.34c0.224,0.119,0.398,0.278,0.524,0.482c0.128,0.204,0.188,0.456,0.188,0.756
				c0,0.272-0.074,0.528-0.226,0.764c-0.152,0.238-0.365,0.414-0.642,0.531c-0.275,0.116-0.619,0.172-1.033,0.172
				c-0.598,0-1.061-0.139-1.382-0.415C168.527,66.886,168.336,66.482,168.273,65.95"/>
			<polygon fill="#FFFFFF" points="172.938,67.494 172.938,62.749 176.458,62.749 176.458,63.551 173.896,63.551 173.896,64.604 
				176.279,64.604 176.279,65.404 173.896,65.404 173.896,66.695 176.548,66.695 176.548,67.494 			"/>
			<path fill="#FFFFFF" d="M177.363,67.494V62.75h2.018c0.506,0,0.875,0.043,1.105,0.129c0.229,0.085,0.414,0.236,0.552,0.453
				c0.139,0.22,0.208,0.468,0.208,0.748c0,0.355-0.105,0.648-0.314,0.88c-0.21,0.232-0.523,0.382-0.939,0.441
				c0.207,0.12,0.377,0.252,0.514,0.396c0.135,0.146,0.316,0.401,0.545,0.771l0.578,0.926h-1.145l-0.692-1.03
				c-0.247-0.369-0.413-0.602-0.506-0.698c-0.091-0.096-0.186-0.161-0.288-0.198c-0.102-0.035-0.262-0.053-0.482-0.053h-0.193v1.979
				H177.363z M178.322,64.756h0.709c0.459,0,0.747-0.019,0.861-0.057c0.113-0.039,0.203-0.106,0.27-0.2
				c0.063-0.096,0.097-0.214,0.097-0.357c0-0.159-0.044-0.288-0.128-0.388c-0.086-0.098-0.207-0.159-0.363-0.186
				c-0.077-0.011-0.31-0.017-0.698-0.017h-0.747V64.756z"/>
			<polygon fill="#FFFFFF" points="183.24,67.494 181.545,62.749 182.582,62.749 183.784,66.261 184.946,62.749 185.963,62.749 
				184.264,67.494 			"/>
			<rect x="186.423" y="62.75" fill="#FFFFFF" width="0.958" height="4.744"/>
			<path fill="#FFFFFF" d="M191.328,65.75l0.93,0.295c-0.143,0.52-0.377,0.903-0.709,1.155c-0.331,0.249-0.752,0.376-1.261,0.376
				c-0.631,0-1.147-0.217-1.554-0.646c-0.405-0.431-0.61-1.02-0.61-1.765c0-0.791,0.206-1.405,0.614-1.841
				c0.406-0.438,0.944-0.657,1.607-0.657c0.581,0,1.053,0.173,1.415,0.515c0.216,0.204,0.378,0.495,0.485,0.873l-0.947,0.229
				c-0.057-0.247-0.174-0.443-0.354-0.585c-0.177-0.141-0.393-0.214-0.647-0.214c-0.353,0-0.638,0.127-0.856,0.381
				c-0.22,0.252-0.329,0.659-0.329,1.227c0,0.601,0.109,1.026,0.325,1.281c0.215,0.255,0.494,0.382,0.841,0.382
				c0.255,0,0.474-0.079,0.657-0.242C191.118,66.354,191.252,66.098,191.328,65.75"/>
			<polygon fill="#FFFFFF" points="193.081,67.494 193.081,62.749 196.602,62.749 196.602,63.551 194.04,63.551 194.04,64.604 
				196.422,64.604 196.422,65.404 194.04,65.404 194.04,66.695 196.691,66.695 196.691,67.494 			"/>
			<path fill="#FFFFFF" d="M197.262,65.95l0.932-0.092c0.057,0.316,0.17,0.544,0.342,0.69c0.172,0.147,0.403,0.223,0.695,0.223
				c0.308,0,0.54-0.068,0.697-0.199c0.156-0.128,0.234-0.28,0.234-0.457c0-0.112-0.033-0.206-0.098-0.286
				c-0.067-0.079-0.183-0.146-0.346-0.205c-0.113-0.037-0.369-0.108-0.768-0.208c-0.514-0.128-0.874-0.284-1.082-0.469
				c-0.291-0.261-0.436-0.579-0.436-0.955c0-0.24,0.068-0.468,0.204-0.678c0.138-0.212,0.334-0.371,0.593-0.481
				c0.259-0.111,0.57-0.165,0.936-0.165c0.594,0,1.043,0.131,1.344,0.392c0.302,0.263,0.459,0.609,0.475,1.046l-0.959,0.042
				c-0.039-0.244-0.129-0.418-0.263-0.524c-0.136-0.109-0.336-0.161-0.607-0.161c-0.278,0-0.497,0.058-0.653,0.172
				c-0.102,0.072-0.153,0.172-0.153,0.294c0,0.11,0.048,0.208,0.143,0.289c0.12,0.102,0.415,0.206,0.882,0.317
				c0.465,0.109,0.811,0.222,1.034,0.34c0.223,0.119,0.397,0.278,0.523,0.482s0.189,0.456,0.189,0.756
				c0,0.272-0.075,0.528-0.227,0.764c-0.151,0.238-0.364,0.414-0.642,0.531c-0.275,0.116-0.62,0.172-1.033,0.172
				c-0.6,0-1.06-0.139-1.382-0.415C197.516,66.886,197.324,66.482,197.262,65.95"/>
		</g>
	</g>
</g>
</svg>
