<?xml version="1.0" encoding="utf-8"?>
<!-- Generator: Adobe Illustrator 16.0.0, SVG Export Plug-In . SVG Version: 6.00 Build 0)  -->
<!DOCTYPE svg PUBLIC "-//W3C//DTD SVG 1.1//EN" "http://www.w3.org/Graphics/SVG/1.1/DTD/svg11.dtd">
<svg version="1.1" id="Layer_1" xmlns="http://www.w3.org/2000/svg" xmlns:xlink="http://www.w3.org/1999/xlink" x="0px" y="0px"
	 width="24px" height="24px" viewBox="0 0 24 24" enable-background="new 0 0 24 24" xml:space="preserve">
<g>
	<g>
		<path fill="#FFFFFF" d="M17.537,19l-1.976-4.176c-0.038-0.084-0.106-0.148-0.188-0.184l-0.982-0.438l1.701-2.852
			c0.004-0.008,0.006-0.016,0.011-0.021c0.341-0.662,0.511-1.375,0.511-2.121c0-1.258-0.492-2.436-1.387-3.318
			c-0.896-0.883-2.081-1.357-3.338-1.342c-1.221,0.018-2.373,0.508-3.24,1.383C7.783,6.805,7.303,7.959,7.295,9.18
			c-0.004,0.746,0.17,1.492,0.51,2.15c0.004,0.006,0.007,0.014,0.01,0.021l1.705,2.852l-0.988,0.439
			c-0.084,0.035-0.146,0.1-0.186,0.182L6.373,19c-0.066,0.141-0.039,0.307,0.068,0.416s0.273,0.143,0.414,0.08l2.473-1.102
			l2.477,1.102c0.094,0.043,0.205,0.043,0.301,0l2.471-1.102l2.473,1.102c0.053,0.021,0.104,0.031,0.154,0.031
			c0.096,0,0.19-0.037,0.262-0.111C17.574,19.307,17.602,19.141,17.537,19z M8.457,10.982c-0.283-0.559-0.428-1.164-0.426-1.799
			c0.016-2.119,1.748-3.865,3.867-3.895c1.059-0.016,2.057,0.385,2.809,1.127c0.754,0.744,1.166,1.734,1.166,2.793
			c0,0.625-0.144,1.221-0.424,1.773l-3.179,5.328c-0.095,0.164-0.253,0.18-0.315,0.18c-0.064,0-0.223-0.016-0.318-0.18L8.457,10.982
			z M14.729,17.652c-0.099-0.043-0.206-0.043-0.302,0l-2.473,1.102l-2.477-1.102c-0.093-0.043-0.203-0.043-0.298,0l-1.715,0.762
			l1.492-3.152l0.941-0.418l1.104,1.848c0.203,0.338,0.559,0.539,0.953,0.539c0.393,0,0.75-0.201,0.951-0.539l1.102-1.848
			l0.945,0.42l1.49,3.15L14.729,17.652z"/>
		<path fill="#FFFFFF" d="M13.258,9.854c0-0.719-0.586-1.303-1.303-1.303c-0.719,0-1.303,0.584-1.303,1.303
			c0,0.717,0.584,1.303,1.303,1.303C12.672,11.156,13.258,10.57,13.258,9.854z M11.223,9.854c0-0.404,0.326-0.732,0.732-0.732
			c0.402,0,0.73,0.328,0.73,0.732s-0.328,0.73-0.73,0.73C11.549,10.584,11.223,10.258,11.223,9.854z"/>
	</g>
</g>
<circle fill="#CE9A2C" cx="11.954" cy="11.818" r="12.046"/>
<g>
	<path fill="#FFFFFF" d="M15.953,13.672c-0.281-0.295-0.621-0.451-0.982-0.451c-0.355,0-0.702,0.154-0.993,0.45l-0.917,0.913
		c-0.076-0.038-0.152-0.078-0.225-0.115c-0.108-0.053-0.205-0.102-0.289-0.154c-0.861-0.547-1.643-1.26-2.393-2.18
		c-0.363-0.461-0.607-0.848-0.785-1.24c0.238-0.217,0.459-0.445,0.672-0.662c0.082-0.082,0.166-0.166,0.246-0.246
		c0.611-0.611,0.611-1.402,0-2.014L9.494,7.18c-0.09-0.09-0.182-0.184-0.271-0.277c-0.174-0.18-0.357-0.365-0.545-0.539
		C8.396,6.082,8.059,5.936,7.701,5.936c-0.352,0-0.695,0.146-0.986,0.428L6.709,6.369L5.721,7.365
		C5.35,7.736,5.135,8.191,5.09,8.717c-0.071,0.85,0.179,1.641,0.373,2.158c0.471,1.271,1.174,2.449,2.223,3.709
		c1.273,1.52,2.805,2.721,4.557,3.568c0.668,0.314,1.561,0.691,2.559,0.754c0.059,0.004,0.125,0.006,0.184,0.006
		c0.672,0,1.236-0.24,1.676-0.721c0.002-0.006,0.01-0.006,0.012-0.014c0.15-0.184,0.326-0.348,0.51-0.527
		c0.125-0.117,0.252-0.242,0.377-0.375c0.287-0.299,0.439-0.648,0.439-1.006c0-0.359-0.152-0.705-0.447-0.996L15.953,13.672z
		 M16.996,16.732c-0.113,0.123-0.23,0.234-0.357,0.354c-0.188,0.18-0.381,0.371-0.559,0.582c-0.295,0.314-0.641,0.463-1.096,0.463
		c-0.041,0-0.089,0-0.132-0.001c-0.864-0.058-1.666-0.394-2.267-0.683c-1.646-0.797-3.092-1.926-4.293-3.361
		c-0.99-1.193-1.654-2.299-2.094-3.486C5.93,9.877,5.832,9.313,5.875,8.781c0.029-0.34,0.158-0.623,0.4-0.863l0.992-0.992
		C7.41,6.793,7.562,6.719,7.709,6.719c0.184,0,0.334,0.111,0.424,0.205C8.137,6.926,8.141,6.93,8.141,6.93
		c0.18,0.168,0.346,0.342,0.525,0.521c0.09,0.095,0.184,0.188,0.275,0.283l0.795,0.793c0.305,0.309,0.305,0.594,0,0.902
		c-0.084,0.084-0.168,0.168-0.25,0.25c-0.244,0.248-0.479,0.482-0.73,0.711c-0.006,0.004-0.012,0.008-0.014,0.014
		c-0.252,0.25-0.205,0.494-0.154,0.66c0,0,0.008,0.018,0.01,0.027c0.207,0.498,0.496,0.969,0.939,1.529l0.004,0.002
		c0.803,0.99,1.648,1.76,2.582,2.352c0.119,0.076,0.24,0.137,0.354,0.193c0.108,0.053,0.206,0.102,0.29,0.154
		c0.012,0.006,0.025,0.016,0.035,0.02c0.098,0.051,0.191,0.074,0.289,0.074c0.24,0,0.393-0.152,0.439-0.201l0.994-0.994
		c0.102-0.098,0.258-0.219,0.441-0.219c0.177,0,0.328,0.115,0.418,0.213c0,0,0.004,0.004,0.006,0.006l1.602,1.602
		C17.291,16.119,17.291,16.426,16.996,16.732z"/>
	<path fill="#FFFFFF" d="M12.514,8.414c0.76,0.129,1.453,0.49,2.004,1.041c0.551,0.553,0.91,1.246,1.041,2.008
		c0.031,0.191,0.197,0.324,0.387,0.324c0.023,0,0.043-0.004,0.066-0.006c0.215-0.033,0.357-0.238,0.324-0.453
		c-0.158-0.922-0.594-1.762-1.26-2.428s-1.506-1.102-2.428-1.258c-0.215-0.037-0.416,0.107-0.453,0.316
		C12.158,8.174,12.297,8.38,12.514,8.414z"/>
	<path fill="#FFFFFF" d="M18.824,11.215c-0.258-1.518-0.973-2.898-2.07-3.998s-2.479-1.814-3.998-2.074
		c-0.211-0.037-0.412,0.107-0.451,0.322c-0.034,0.213,0.109,0.415,0.322,0.453c1.355,0.23,2.59,0.873,3.574,1.852
		c0.982,0.982,1.621,2.217,1.852,3.574c0.033,0.193,0.197,0.324,0.387,0.324c0.025,0,0.043-0.004,0.068-0.006
		C18.719,11.631,18.863,11.426,18.824,11.215z"/>
</g>
</svg>
