<?xml version="1.0" encoding="utf-8"?>
<!-- Generator: Adobe Illustrator 16.0.0, SVG Export Plug-In . SVG Version: 6.00 Build 0)  -->
<!DOCTYPE svg PUBLIC "-//W3C//DTD SVG 1.1//EN" "http://www.w3.org/Graphics/SVG/1.1/DTD/svg11.dtd">
<svg version="1.1" id="Layer_1" xmlns="http://www.w3.org/2000/svg" xmlns:xlink="http://www.w3.org/1999/xlink" x="0px" y="0px"
	 width="24px" height="24px" viewBox="0 0 24 24" enable-background="new 0 0 24 24" xml:space="preserve">
<g>
	<g>
		<path fill="#FFFFFF" d="M17.537,19l-1.976-4.176c-0.038-0.084-0.106-0.148-0.188-0.184l-0.982-0.438l1.701-2.852
			c0.004-0.008,0.006-0.016,0.011-0.021c0.341-0.662,0.511-1.375,0.511-2.121c0-1.258-0.492-2.436-1.387-3.318
			c-0.896-0.883-2.081-1.357-3.338-1.342c-1.221,0.018-2.373,0.508-3.24,1.383C7.783,6.805,7.303,7.959,7.295,9.18
			c-0.004,0.746,0.17,1.492,0.51,2.15c0.004,0.006,0.007,0.014,0.01,0.021l1.705,2.852l-0.988,0.439
			c-0.084,0.035-0.146,0.1-0.186,0.182L6.373,19c-0.066,0.141-0.039,0.307,0.068,0.416s0.273,0.143,0.414,0.08l2.473-1.102
			l2.477,1.102c0.094,0.043,0.205,0.043,0.301,0l2.471-1.102l2.473,1.102c0.053,0.021,0.104,0.031,0.154,0.031
			c0.096,0,0.19-0.037,0.262-0.111C17.574,19.307,17.602,19.141,17.537,19z M8.457,10.982c-0.283-0.559-0.428-1.164-0.426-1.799
			c0.016-2.119,1.748-3.865,3.867-3.895c1.059-0.016,2.057,0.385,2.809,1.127c0.754,0.744,1.166,1.734,1.166,2.793
			c0,0.625-0.144,1.221-0.424,1.773l-3.179,5.328c-0.095,0.164-0.253,0.18-0.315,0.18c-0.064,0-0.223-0.016-0.318-0.18L8.457,10.982
			z M14.729,17.652c-0.099-0.043-0.206-0.043-0.302,0l-2.473,1.102l-2.477-1.102c-0.093-0.043-0.203-0.043-0.298,0l-1.715,0.762
			l1.492-3.152l0.941-0.418l1.104,1.848c0.203,0.338,0.559,0.539,0.953,0.539c0.393,0,0.75-0.201,0.951-0.539l1.102-1.848
			l0.945,0.42l1.49,3.15L14.729,17.652z"/>
		<path fill="#FFFFFF" d="M13.258,9.854c0-0.719-0.586-1.303-1.303-1.303c-0.719,0-1.303,0.584-1.303,1.303
			c0,0.717,0.584,1.303,1.303,1.303C12.672,11.156,13.258,10.57,13.258,9.854z M11.223,9.854c0-0.404,0.326-0.732,0.732-0.732
			c0.402,0,0.73,0.328,0.73,0.732s-0.328,0.73-0.73,0.73C11.549,10.584,11.223,10.258,11.223,9.854z"/>
	</g>
</g>
<circle fill="#CE9A2C" cx="12.001" cy="12.04" r="12.046"/>
<g>
	<path fill="#FFFFFF" d="M19.221,9.083L17.35,7.84V3.694c0-0.135-0.107-0.244-0.242-0.244H6.894c-0.133,0-0.242,0.109-0.242,0.244
		V7.84L4.781,9.083C4.714,9.125,4.671,9.2,4.671,9.284v7.517c0,0.135,0.109,0.244,0.242,0.244h14.174
		c0.133,0,0.242-0.109,0.242-0.244V9.284C19.33,9.2,19.287,9.125,19.221,9.083z M17.35,8.422l0.932,0.619H17.35V8.422z M17.35,9.526
		h0.762L17.35,9.93V9.526z M7.138,3.936h9.727v6.252L12.8,12.344l-0.666-0.441c-0.08-0.055-0.188-0.055-0.268,0l-0.666,0.441
		l-4.063-2.156V3.936z M6.652,8.424v0.617H5.72L6.652,8.424z M6.652,9.526V9.93L5.89,9.526H6.652z M5.158,9.688l5.582,2.961
		L5.158,16.35V9.688z M5.72,16.559L12,12.397l6.282,4.162H5.72z M18.844,16.35l-5.582-3.701l5.582-2.961V16.35z"/>
	<path fill="#FFFFFF" d="M13.936,9.834c0.131,0,0.242-0.107,0.242-0.242c0-0.133-0.111-0.242-0.242-0.242H12
		c-0.932,0-1.691-0.76-1.691-1.691V7.586c0-0.934,0.759-1.691,1.691-1.691c0.934,0,1.692,0.758,1.692,1.691v0.18
		c0,0.201-0.166,0.365-0.365,0.365c-0.201,0-0.366-0.164-0.366-0.365V7.424c0-0.578-0.471-1.047-1.049-1.047
		s-1.049,0.469-1.049,1.047c0,0.58,0.471,1.049,1.049,1.049c0.264,0,0.506-0.098,0.689-0.26c0.15,0.242,0.42,0.404,0.725,0.404
		c0.469,0,0.852-0.383,0.852-0.852v-0.18c0-1.201-0.977-2.178-2.178-2.178c-1.199,0-2.176,0.977-2.176,2.178v0.072
		c0,1.199,0.977,2.176,2.176,2.176H13.936z M11.912,7.989c-0.311,0-0.564-0.254-0.564-0.564s0.254-0.563,0.564-0.563
		s0.563,0.252,0.563,0.563S12.222,7.989,11.912,7.989z"/>
</g>
</svg>
