<?xml version="1.0" encoding="utf-8"?>
<!-- Generator: Adobe Illustrator 18.0.0, SVG Export Plug-In . SVG Version: 6.00 Build 0)  -->
<!DOCTYPE svg PUBLIC "-//W3C//DTD SVG 1.1//EN" "http://www.w3.org/Graphics/SVG/1.1/DTD/svg11.dtd">
<svg version="1.1" id="Layer_1" xmlns="http://www.w3.org/2000/svg" xmlns:xlink="http://www.w3.org/1999/xlink" x="0px" y="0px"
	 viewBox="0 0 65 50" enable-background="new 0 0 65 50" xml:space="preserve">
<g opacity="0.5">
	<path fill="#FFFFFF" d="M41.8,0.3h23.4v16.5c0,6.7-0.6,12-1.8,15.8C62.2,36.5,60,40,56.8,43c-3.2,3.1-7.3,5.5-12.3,7.2l-4.6-9.5
		c4.7-1.5,8-3.7,10-6.4c2-2.7,3.1-6.4,3.2-10.9H41.8V0.3z M2.7,0.3h23.4v16.5c0,6.7-0.6,12-1.8,15.9c-1.2,3.8-3.4,7.3-6.7,10.4
		c-3.2,3.1-7.3,5.5-12.3,7.2l-4.6-9.5c4.7-1.5,8-3.7,10-6.4c2-2.7,3.1-6.4,3.2-10.9H2.7V0.3z"/>
</g>
</svg>
